# xmcd CD database file
#
# Track frame offsets:
#	150
#	11260
#	19632
#	39825
#	51439
#	60675
#	70477
#	82195
#	89812
#	98702
#	106925
#	122012
#	130179
#	144575
#	159952
#	166710
#	177292
#	186222
#	194209
#	204190
#
# Disc length: 2819 seconds
#
# Revision: 0
# Processed by: cddbd v1.5.1PL0 Copyright (c) Steve Scherf et al.
# Submitted via: CDex 1.50Beta7
#
DISCID=110b0114
DTITLE=Burt Bacharach - Minus One
DYEAR=1900
DGENRE=Jazz
TTITLE0=Alfie
TTITLE1=(They Long To Be) Close To You
TTITLE2=Heartlight
TTITLE3=A House Is Not A Home
TTITLE4=Do You Know The Way To San Jose
TTITLE5=The Look Of Love
TTITLE6=I Say A Little Prayer
TTITLE7=This Guy's In Love With You
TTITLE8=One Less Bell To Answer
TTITLE9=Promises Promises
TTITLE10=That's What Friends Are For
TTITLE11=Wives And Lovers
TTITLE12=I'll Never Fall In Love Again
TTITLE13=Any Day Now
TTITLE14=Walk On By
TTITLE15=What's New Pussycat
TTITLE16=Trains And Boats And Planes
TTITLE17=What The World Needs Now Is Love
TTITLE18=Youwll Never Get To Heaven (If You Break My Heart)
TTITLE19=Raindrops Keep Fallinw On My Head
EXTD=
EXTT0=
EXTT1=
EXTT2=
EXTT3=
EXTT4=
EXTT5=
EXTT6=
EXTT7=
EXTT8=
EXTT9=
EXTT10=
EXTT11=
EXTT12=
EXTT13=
EXTT14=
EXTT15=
EXTT16=
EXTT17=
EXTT18=
EXTT19=
PLAYORDER=
